<svg version="1.1" id="Layer_1" xmlns="http://www.w3.org/2000/svg" xmlns:xlink="http://www.w3.org/1999/xlink" x="0px" y="0px"
	 width="100%" viewBox="0 0 180 180" enable-background="new 0 0 180 180" xml:space="preserve">
<path fill="#17DF7F" opacity="1.000000" stroke="none" 
	d="
M1.238157,172.260452 
	C1.000000,118.312439 1.000000,64.624878 1.000000,10.468657 
	C2.613421,5.952172 4.753299,2.428047 9.739549,1.238158 
	C63.687561,1.000000 117.375122,1.000000 171.531342,1.000000 
	C175.964661,2.697358 179.519394,4.805955 180.756042,9.742422 
	C181.000000,63.687561 181.000000,117.375122 181.000000,171.531342 
	C179.386551,176.047806 177.246719,179.571976 172.260452,180.761841 
	C118.312439,181.000000 64.624878,181.000000 10.468657,181.000000 
	C5.952147,179.386597 2.428070,177.246674 1.238157,172.260452 
z"/>
<path fill="#000000" opacity="1.000000" stroke="none" 
	d="
M181.000000,9.508951 
	C179.843567,11.239782 179.144241,9.785297 178.948090,9.317357 
	C177.423721,5.680837 173.561569,4.379753 171.670898,1.237900 
	C172.324158,1.000000 172.648300,1.000000 172.972458,1.000000 
	C181.000000,1.000000 181.000000,1.000000 181.000000,9.508951 
z"/>
<path fill="#000000" opacity="1.000000" stroke="none" 
	d="
M9.508951,1.000000 
	C11.067574,3.503466 8.305050,2.860717 7.530044,3.886601 
	C5.713213,6.291557 3.522977,8.414422 1.241949,10.325740 
	C1.000000,9.675850 1.000000,9.351699 1.000000,9.027549 
	C0.999998,1.000000 0.999999,1.000000 9.508951,1.000000 
z"/>
<path fill="#000000" opacity="1.000000" stroke="none" 
	d="
M1.000000,172.491058 
	C3.503692,170.932144 2.860494,173.695053 3.886465,174.470001 
	C6.291575,176.286636 8.414397,178.477005 10.325745,180.758041 
	C9.675850,181.000000 9.351699,181.000000 9.027549,181.000000 
	C0.999996,181.000000 0.999996,181.000000 1.000000,172.491058 
z"/>
<path fill="#000000" opacity="1.000000" stroke="none" 
	d="
M172.491058,181.000000 
	C170.927948,178.496582 173.693512,179.137482 174.467743,178.110657 
	C176.282043,175.704437 178.475876,173.584412 180.758026,171.674255 
	C181.000000,172.324158 181.000000,172.648300 181.000000,172.972458 
	C181.000000,181.000000 181.000000,181.000000 172.491058,181.000000 
z"/>
<path fill="#FAFEFC" opacity="1.000000" stroke="none" 
	d="
M96.927673,156.044540 
	C63.439194,155.882950 39.810600,133.412888 37.234676,99.525017 
	C35.720264,79.602013 39.188389,60.982166 52.839581,45.425957 
	C68.916557,27.105453 89.503342,23.319103 112.389130,27.362556 
	C121.749176,29.016285 129.974686,33.226555 137.658432,38.721134 
	C140.128494,40.487457 140.838058,41.674126 138.695663,44.406044 
	C133.144363,51.484882 133.287827,51.597385 126.002197,46.642086 
	C95.678345,26.017431 57.743435,43.598061 53.055603,80.447365 
	C51.254417,94.605774 52.205193,108.406670 58.978500,121.275665 
	C73.145660,148.192657 111.521935,151.077621 129.810181,126.791542 
	C132.690414,122.966690 131.845261,118.900673 131.892151,114.856880 
	C132.014816,104.278435 131.933517,104.277748 121.211594,104.277397 
	C114.215240,104.277168 107.216515,104.169884 100.223671,104.326088 
	C97.308342,104.391205 95.789680,103.641632 96.171143,100.442810 
	C96.347412,98.964600 96.304764,97.439201 96.178505,95.950706 
	C95.965965,93.444847 96.849892,92.347191 99.525436,92.362495 
	C113.684235,92.443474 127.844170,92.454414 142.002655,92.348854 
	C144.728409,92.328529 145.350113,93.426384 145.340363,95.904091 
	C145.268234,114.227577 145.286377,132.551498 145.318726,150.875214 
	C145.322388,152.950790 145.014648,154.829605 142.425064,154.196198 
	C139.617523,153.509491 135.336105,156.752136 134.186096,151.470062 
	C133.342804,147.596832 132.835007,143.650528 132.032516,138.872452 
	C122.613380,149.965927 111.284348,155.707169 96.927673,156.044540 
z"/>
</svg>